<?xml version="1.0" encoding="UTF-8"?>
<!DOCTYPE svg PUBLIC "-//W3C//DTD SVG 1.1//EN" "http://www.w3.org/Graphics/SVG/1.1/DTD/svg11.dtd">
<svg xmlns="http://www.w3.org/2000/svg" version="1.1" width="1024px" height="1024px" style="shape-rendering:geometricPrecision; text-rendering:geometricPrecision; image-rendering:optimizeQuality; fill-rule:evenodd; clip-rule:evenodd" xmlns:xlink="http://www.w3.org/1999/xlink">
<g><path style="opacity:1" fill="#fefefe" d="M -0.5,-0.5 C 340.833,-0.5 682.167,-0.5 1023.5,-0.5C 1023.5,340.833 1023.5,682.167 1023.5,1023.5C 682.167,1023.5 340.833,1023.5 -0.5,1023.5C -0.5,682.167 -0.5,340.833 -0.5,-0.5 Z"/></g>
<g><path style="opacity:1" fill="#b0b3bb" d="M 728.5,310.5 C 547.167,311.833 365.833,311.833 184.5,310.5C 365.847,309.17 547.18,309.17 728.5,310.5 Z"/></g>
<g><path style="opacity:1" fill="#b7bbc2" d="M 184.5,310.5 C 365.833,311.833 547.167,311.833 728.5,310.5C 750.889,313.943 769.389,324.276 784,341.5C 811.461,384.974 838.128,428.974 864,473.5C 868.056,482.779 870.723,492.445 872,502.5C 872.961,539.2 872.628,575.867 871,612.5C 865.356,633.314 851.856,644.98 830.5,647.5C 812.007,646.503 793.341,646.17 774.5,646.5C 774.943,640.709 774.609,637.042 773.5,635.5C 764.83,593.173 738.83,570.84 695.5,568.5C 654.223,572.115 629.223,594.115 620.5,634.5C 619.517,638.298 619.183,642.298 619.5,646.5C 545.453,647.162 471.62,646.495 398,644.5C 397.517,645.448 397.351,646.448 397.5,647.5C 396.025,609.511 377.358,584.011 341.5,571C 298.813,562.594 267.98,577.761 249,616.5C 247.151,621.535 245.651,626.535 244.5,631.5C 243.583,631.494 243.083,632.494 243,634.5C 242.501,638.486 242.334,642.486 242.5,646.5C 223.659,646.17 204.993,646.503 186.5,647.5C 167.19,645.612 155.357,635.279 151,616.5C 150.333,524.5 150.333,432.5 151,340.5C 156.024,323.643 167.191,313.643 184.5,310.5 Z"/></g>
<g><path style="opacity:1" fill="#a4a9b1" d="M 548.5,359.5 C 508.124,359.178 467.791,359.512 427.5,360.5C 427.062,360.565 426.728,360.399 426.5,360C 427.167,359.667 427.833,359.333 428.5,359C 469.238,358.17 509.238,358.337 548.5,359.5 Z"/></g>
<g><path style="opacity:1" fill="#fefefe" d="M 366.5,360.5 C 368.836,362.004 370.669,364.004 372,366.5C 372.5,401.832 372.667,437.165 372.5,472.5C 371.141,475.859 368.808,478.192 365.5,479.5C 364.833,479.5 364.167,479.5 363.5,479.5C 323.832,479.667 284.165,479.5 244.5,479C 242.677,478.003 241.01,476.836 239.5,475.5C 238.513,439.21 238.18,402.876 238.5,366.5C 240.395,363.443 243.062,361.277 246.5,360C 286.541,359.178 326.541,359.345 366.5,360.5 Z"/></g>
<g><path style="opacity:1" fill="#fefefe" d="M 548.5,359.5 C 552.147,360.983 554.647,363.65 556,367.5C 556.667,402.167 556.667,436.833 556,471.5C 555.496,475.02 553.663,477.52 550.5,479C 510.501,479.5 470.501,479.667 430.5,479.5C 426.98,478.817 424.48,476.817 423,473.5C 422.5,455.503 422.333,437.503 422.5,419.5C 422.333,401.497 422.5,383.497 423,365.5C 424.025,363.313 425.525,361.646 427.5,360.5C 467.791,359.512 508.124,359.178 548.5,359.5 Z"/></g>
<g><path style="opacity:1" fill="#fefefe" d="M 793.5,478.5 C 742.529,479.653 691.529,479.82 640.5,479C 636,477.167 632.833,474 631,469.5C 630.5,436.168 630.333,402.835 630.5,369.5C 633.447,365.058 637.447,361.892 642.5,360C 671.167,359.333 699.833,359.333 728.5,360C 737.184,362.255 744.017,367.088 749,374.5C 765.415,402.333 782.082,429.999 799,457.5C 802.367,466.011 800.534,473.011 793.5,478.5 Z"/></g>
<g><path style="opacity:1" fill="#a9acb4" d="M 366.5,360.5 C 369.395,360.483 371.562,362.15 373,365.5C 373.829,401.905 373.663,437.571 372.5,472.5C 372.667,437.165 372.5,401.832 372,366.5C 370.669,364.004 368.836,362.004 366.5,360.5 Z"/></g>
<g><path style="opacity:1" fill="#a6aab3" d="M 238.5,366.5 C 238.18,402.876 238.513,439.21 239.5,475.5C 238.883,475.389 238.383,475.056 238,474.5C 237.169,438.331 237.336,402.331 238.5,366.5 Z"/></g>
<g><path style="opacity:1" fill="#acb0b8" d="M 422.5,419.5 C 422.333,437.503 422.5,455.503 423,473.5C 424.48,476.817 426.98,478.817 430.5,479.5C 469.331,480.333 508.331,480.833 547.5,481C 508.167,481.667 468.833,481.667 429.5,481C 424.901,479.402 422.068,476.235 421,471.5C 420.333,436.833 420.333,402.167 421,367.5C 421.168,385.005 421.668,402.338 422.5,419.5 Z"/></g>
<g><path style="opacity:1" fill="#a6a9b2" d="M 363.5,479.5 C 364.167,479.5 364.833,479.5 365.5,479.5C 365.938,479.435 366.272,479.601 366.5,480C 365.833,480.333 365.167,480.667 364.5,481C 325.5,481.667 286.5,481.667 247.5,481C 286.335,480.833 325.002,480.333 363.5,479.5 Z"/></g>
<g><path style="opacity:1" fill="#b3b7be" d="M 630.5,369.5 C 630.333,402.835 630.5,436.168 631,469.5C 632.833,474 636,477.167 640.5,479C 691.529,479.82 742.529,479.653 793.5,478.5C 792.158,479.793 790.491,480.626 788.5,481C 739.833,481.667 691.167,481.667 642.5,481C 635.333,479.167 630.833,474.667 629,467.5C 628.333,435.5 628.333,403.5 629,371.5C 629.278,370.584 629.778,369.918 630.5,369.5 Z"/></g>
<g><path style="opacity:1" fill="#b7bbc2" d="M 314.5,587.5 C 347.901,587.27 368.734,603.27 377,635.5C 379.659,660.341 370.825,679.841 350.5,694C 322.5,708.399 297.666,704.232 276,681.5C 262.543,663.004 259.876,643.004 268,621.5C 277.76,602.23 293.26,590.897 314.5,587.5 Z"/></g>
<g><path style="opacity:1" fill="#b7bac1" d="M 687.5,588.5 C 723.78,586.028 745.947,602.361 754,637.5C 755.653,661.693 746.486,680.526 726.5,694C 699.479,707.286 675.312,703.452 654,682.5C 631.986,651.095 635.486,622.928 664.5,598C 671.819,593.664 679.486,590.497 687.5,588.5 Z"/></g>
<g><path style="opacity:1" fill="#a5aab2" d="M 244.5,631.5 C 243.725,636.797 243.392,642.13 243.5,647.5C 224.5,647.5 205.5,647.5 186.5,647.5C 204.993,646.503 223.659,646.17 242.5,646.5C 242.334,642.486 242.501,638.486 243,634.5C 243.083,632.494 243.583,631.494 244.5,631.5 Z"/></g>
<g><path style="opacity:1" fill="#a4a9b2" d="M 620.5,634.5 C 620.5,638.833 620.5,643.167 620.5,647.5C 546.167,647.5 471.833,647.5 397.5,647.5C 397.351,646.448 397.517,645.448 398,644.5C 471.62,646.495 545.453,647.162 619.5,646.5C 619.183,642.298 619.517,638.298 620.5,634.5 Z"/></g>
<g><path style="opacity:1" fill="#a2a7b1" d="M 830.5,647.5 C 811.5,647.5 792.5,647.5 773.5,647.5C 773.5,643.5 773.5,639.5 773.5,635.5C 774.609,637.042 774.943,640.709 774.5,646.5C 793.341,646.17 812.007,646.503 830.5,647.5 Z"/></g>
</svg>
