<?xml version="1.0" encoding="UTF-8"?>
<!DOCTYPE svg PUBLIC "-//W3C//DTD SVG 1.1//EN" "http://www.w3.org/Graphics/SVG/1.1/DTD/svg11.dtd">
<svg xmlns="http://www.w3.org/2000/svg" version="1.1" width="1024px" height="1024px" style="shape-rendering:geometricPrecision; text-rendering:geometricPrecision; image-rendering:optimizeQuality; fill-rule:evenodd; clip-rule:evenodd" xmlns:xlink="http://www.w3.org/1999/xlink">
<g><path style="opacity:1" fill="#fefefe" d="M -0.5,-0.5 C 340.833,-0.5 682.167,-0.5 1023.5,-0.5C 1023.5,340.833 1023.5,682.167 1023.5,1023.5C 682.167,1023.5 340.833,1023.5 -0.5,1023.5C -0.5,682.167 -0.5,340.833 -0.5,-0.5 Z"/></g>
<g><path style="opacity:1" fill="#b7bbc3" d="M 567.5,376.5 C 395.169,377.495 222.836,377.828 50.5,377.5C 50.8325,448.002 50.4992,518.335 49.5,588.5C 49.5,517.5 49.5,446.5 49.5,375.5C 222.184,375.173 394.851,375.507 567.5,376.5 Z"/></g>
<g><path style="opacity:1" fill="#bec2c9" d="M 567.5,376.5 C 604.289,380.485 638.289,392.318 669.5,412C 681.521,420.011 693.188,428.511 704.5,437.5C 666.171,438.333 627.838,438.833 589.5,439C 583.726,441.707 580.226,446.207 579,452.5C 576.943,472.581 585.11,486.581 603.5,494.5C 603.611,495.117 603.944,495.617 604.5,496C 607.424,496.988 610.424,497.654 613.5,498C 672.001,498.832 730.335,498.665 788.5,497.5C 835.538,513.568 882.871,528.735 930.5,543C 970.053,559.94 983.886,589.107 972,630.5C 960.791,653.042 942.625,666.209 917.5,670C 910.54,671.087 903.54,671.587 896.5,671.5C 614.667,670.5 332.667,670.167 50.5,670.5C 50.5,656.167 50.5,641.833 50.5,627.5C 335.903,627.833 620.57,627.5 904.5,626.5C 918.362,621.774 922.862,612.441 918,598.5C 914.878,594.031 910.712,591.198 905.5,590C 641.507,589.364 377.507,589.53 113.5,590.5C 95.5,590.333 77.5,590.167 59.5,590C 55.9748,589.821 52.6414,589.321 49.5,588.5C 50.4992,518.335 50.8325,448.002 50.5,377.5C 222.836,377.828 395.169,377.495 567.5,376.5 Z"/></g>
<g><path style="opacity:1" fill="#b2b6bf" d="M 386.5,444.5 C 383.924,441.377 380.59,439.543 376.5,439C 363.5,438.333 350.5,438.333 337.5,439C 332.687,439.981 329.687,442.814 328.5,447.5C 328.126,442.33 330.792,439.163 336.5,438C 350.5,437.333 364.5,437.333 378.5,438C 382.566,438.576 385.233,440.743 386.5,444.5 Z"/></g>
<g><path style="opacity:1" fill="#b1b5be" d="M 502.5,447.5 C 500.588,443.095 497.255,440.261 492.5,439C 479.167,438.333 465.833,438.333 452.5,439C 451.099,439.41 449.766,439.91 448.5,440.5C 447.262,440.19 447.262,439.69 448.5,439C 449.5,438.667 450.5,438.333 451.5,438C 465.5,437.333 479.5,437.333 493.5,438C 498.765,439.096 501.765,442.263 502.5,447.5 Z"/></g>
<g><path style="opacity:1" fill="#fefefe" d="M 106.5,438.5 C 119.837,438.333 133.171,438.5 146.5,439C 149.548,439.606 152.048,441.106 154,443.5C 155.635,459.074 155.968,474.741 155,490.5C 154.215,492.286 153.049,493.786 151.5,495C 135.926,496.635 120.259,496.968 104.5,496C 102.376,494.878 100.543,493.378 99,491.5C 97.3666,476.593 97.0332,461.593 98,446.5C 99.6913,442.579 102.525,439.913 106.5,438.5 Z"/></g>
<g><path style="opacity:1" fill="#fefefe" d="M 219.5,439.5 C 234.837,439.333 250.17,439.5 265.5,440C 267.286,440.785 268.786,441.951 270,443.5C 271.634,458.741 271.968,474.074 271,489.5C 270.167,493 268,495.167 264.5,496C 249.5,496.667 234.5,496.667 219.5,496C 217.376,494.878 215.543,493.378 214,491.5C 212.383,476.568 212.049,461.568 213,446.5C 214.694,443.642 216.861,441.309 219.5,439.5 Z"/></g>
<g><path style="opacity:1" fill="#fefefe" d="M 386.5,444.5 C 387.999,460.203 387.832,475.869 386,491.5C 384.457,493.378 382.624,494.878 380.5,496C 365.167,496.667 349.833,496.667 334.5,496C 332,494.833 330.167,493 329,490.5C 328.5,476.171 328.333,461.837 328.5,447.5C 329.687,442.814 332.687,439.981 337.5,439C 350.5,438.333 363.5,438.333 376.5,439C 380.59,439.543 383.924,441.377 386.5,444.5 Z"/></g>
<g><path style="opacity:1" fill="#fdfdfe" d="M 502.5,447.5 C 502.667,460.837 502.5,474.171 502,487.5C 501.394,490.548 499.894,493.048 497.5,495C 481.901,496.62 466.234,496.953 450.5,496C 446.795,494.301 444.628,491.467 444,487.5C 443.333,474.167 443.333,460.833 444,447.5C 444.938,444.743 446.438,442.41 448.5,440.5C 449.766,439.91 451.099,439.41 452.5,439C 465.833,438.333 479.167,438.333 492.5,439C 497.255,440.261 500.588,443.095 502.5,447.5 Z"/></g>
<g><path style="opacity:1" fill="#bcbfc7" d="M 603.5,494.5 C 605.564,494.687 607.564,495.187 609.5,496C 669.237,496.171 728.904,496.671 788.5,497.5C 730.335,498.665 672.001,498.832 613.5,498C 610.424,497.654 607.424,496.988 604.5,496C 603.944,495.617 603.611,495.117 603.5,494.5 Z"/></g>
<g><path style="opacity:1" fill="#b0b4bd" d="M 904.5,626.5 C 620.57,627.5 335.903,627.833 50.5,627.5C 50.5,641.833 50.5,656.167 50.5,670.5C 332.667,670.167 614.667,670.5 896.5,671.5C 614.167,671.5 331.833,671.5 49.5,671.5C 49.5,656.5 49.5,641.5 49.5,626.5C 334.5,626.5 619.5,626.5 904.5,626.5 Z"/></g>
</svg>
