<?xml version="1.0" encoding="utf-8"?>
<svg height="279.285" id="b" viewBox="0.0 0.0 184.75 139.6425" width="369.5" xmlns="http://www.w3.org/2000/svg"><g transform="translate(50,50)"><defs><style>.d{fill:#bfc2c9;}.d,.e,.f,.g,.h,.i,.j{stroke-width:0px;}.e{fill:#bfc2c9;}.f{fill:#bfc2c9;}.g{fill:#bfc2c9;}.h{fill:#fff;}.i{fill:#bfc2c9;}.j{fill:#bfc2c9;}</style></defs><g id="c"><path class="g" d="M10.237,38.032C1.141,43.967-.303,48.791.047,54.025c.327,4.892,4.516,8.634,12.091,8.634h143.798c3.349,0,6.064-2.633,6.064-5.885,0-11.874,0-36.967,0-50.893,0-3.252-2.71-5.881-6.059-5.881-15.902,0-57.61,0-57.61,0,0,0-.717,0-1.685,0-17.012,0-32.061,5.645-39.751,9.868-15.264,8.384-46.657,28.164-46.657,28.164"/><path class="e" d="M161.999,38.032v10.111H51.83c-1.54,0-2.427-1.7-1.516-2.906l3.43-4.537c1.268-1.677,3.283-2.668,5.426-2.668h102.829Z"/><rect class="h" height="32.068" rx="4.043" ry="4.043" width="17.108" x="81.75" y="20.078"/><path class="i" d="M115.4,18.554h6.201c1.358,0,2.459,1.069,2.459,2.387,0,2.068,0,4.137,0,6.205,0,1.164-.979,2.107-2.178,2.107-4.327,0-2.042,0-6.765,0-1.198,0-2.176-.943-2.176-2.107v-6.206c0-1.319,1.101-2.387,2.459-2.387Z"/><path class="i" d="M138.178,18.554h6.201c1.358,0,2.459,1.069,2.459,2.387,0,2.068,0,4.137,0,6.205,0,1.164-.979,2.107-2.178,2.107-4.327,0-2.042,0-6.765,0-1.198,0-2.176-.943-2.176-2.107v-6.206c0-1.319,1.101-2.387,2.459-2.387Z"/><path class="j" d="M45.99,22.116c-4.135,0-9.398,0-9.992,0,6.248-3.787,12.609-7.574,17.779-10.505.603.003.951.003.951.003h10.94c2.022,0,2.69,2.709.901,3.65l-11.283,5.93c-1.327.608-2.777.923-4.244.923,0,0-2.271,0-5.052,0Z"/><path class="g" d="M212.689,44.017c.157-.973.405-1.931.72-2.863,2.02-5.961,5.303-10.015,9.923-13.937.059-.05.118-.1.178-.15,8.532-7.203,19.36-10.433,30.137-9.302,27.031,2.837,58.436,8.939,84.131,15.655,6.364-2.48,16.174-6.897,22.205-8.542,2.001-.546,3.855,1.307,3.511,3.506-.645,4.131-1.702,10.142-2.855,13.583,3.104,1.661,5.87,4.33,8.076,7.743,1.967,3.042.024,7.216-3.411,7.218-44.047.023-130.634.214-138.787-.008-6.055-.165-13.419-1.096-13.988-9.757-.069-1.055-.006-2.109.161-3.146Z"/><path class="d" d="M312.857,20.165c.321-.474.672-.984,1.073-1.562.177-.253.33-.547.33-.851,0-.253-.942-1.215-1.378-1.55-.389-.294-2.803-.486-5.206.324-5.886,1.995-11.761,4.212-17.753,6.459,6.296,1.119,12.596,2.34,18.794,3.634,1.93-3.059,2.753-4.409,4.139-6.455Z"/><path class="i" d="M237.112,26.043c-.86-.553-1.903-.884-3.088-.884h-7.119s-.348,0-.956,0c-.832.601-1.645,1.237-2.439,1.907-.059.05-.118.1-.178.15-3.346,2.841-5.991,5.751-7.963,9.405,0,.004,18.576.004,18.576.004,1.351,0,2.658-.471,3.686-1.351.044-.035.078-.07.122-.105,3.108-2.669,2.328-7.219-.641-9.128Z"/><path class="d" d="M279.088,54.227c13.518,6.478,30.333,14.089,47.215,21.629,7.577,3.384,13.262-3.943,7.885-10.264-7.998-9.403-15.763-16.831-21.169-21.524-2.131-1.851-4.691-3.123-7.514-3.123h-23.285c-7.403,0-9.809,10.083-3.133,13.282Z"/><path class="h" d="M256.901,30.787h-3.77c-.667,0-1.367.29-1.839.762-.451.451-.791,1.191-.762,1.838.03.672.251,1.37.762,1.839.509.467,1.134.762,1.839.762h3.77c.667,0,1.367-.29,1.839-.762.451-.451.791-1.191.762-1.839-.03-.672-.251-1.37-.762-1.838-.509-.467-1.134-.762-1.839-.762Z"/><path class="h" d="M270.07,30.787h-3.77c-.667,0-1.367.29-1.838.762-.451.451-.791,1.191-.762,1.838.03.672.251,1.37.762,1.839.509.467,1.134.762,1.838.762h3.77c.667,0,1.367-.29,1.839-.762.451-.451.791-1.191.762-1.839-.03-.672-.251-1.37-.762-1.838-.509-.467-1.134-.762-1.839-.762Z"/><path class="h" d="M285.077,31.548c-.509-.467-1.134-.762-1.839-.762h-3.77c-.667,0-1.367.29-1.838.762-.451.451-.791,1.191-.762,1.838.03.672.251,1.37.762,1.839.509.467,1.134.762,1.838.762h3.77c.667,0,1.367-.29,1.839-.762.451-.451.791-1.191.762-1.839-.03-.672-.251-1.37-.762-1.838Z"/><path class="g" d="M9,261.569v-16.734c0-.313.024-.629.071-.938,1.83-11.969,3.795-23.126,5.881-33.244.585-2.836,3.086-4.861,5.981-4.861h125.959c3.373,0,6.107,2.731,6.107,6.104,0,14.439,0,38.477,0,49.684,0,3.373-2.741,6.101-6.114,6.101-59.759-.003-115.808-.004-131.783-.005-3.373,0-6.104-2.734-6.104-6.107Z"/><path class="f" d="M51.166,267.525c-.38-5.934-5.125-10.335-11.035-10.419-4.627.06-8.644,2.738-10.333,7.062-1.507,3.859-.628,8.519,2.093,11.61,2.876,3.268,7.927,4.272,11.983,2.925,4.75-1.577,7.61-6.217,7.292-11.179Z"/><path class="i" d="M40.974,237.374v-15.187c0-1.124.911-2.036,2.036-2.036h89.819c1.124,0,2.036.921,2.036,2.045,0,7.012,0,10.905,0,15.176,0,1.124-.911,2.038-2.036,2.038H43.01c-1.124,0-2.036-.911-2.036-2.036Z"/><path class="j" d="M22.596,212.902c-.171-.047-.352-.072-.54-.072h-7.546c-1.923,9.534-3.739,19.95-5.438,31.067-.024.159-.043.32-.054.481.861,0,1.49,0,1.49,0h6.857c.997,0,1.847-.726,2.01-1.709,1.916-11.594,2.609-16.756,4.68-27.409.209-1.073-.461-2.084-1.458-2.357Z"/><path class="h" d="M61.167,221.213v17.135c0,2.574,4,2.578,4,0v-17.135c0-2.574-4-2.578-4,0h0Z"/><path class="h" d="M85.92,221.213v17.135c0,2.574,4,2.578,4,0v-17.135c0-2.574-4-2.578-4,0h0Z"/><path class="h" d="M110.351,221.213v17.135c0,2.574,4,2.578,4,0v-17.135c0-2.574-4-2.578-4,0h0Z"/><path class="j" d="M57.399,259.901c17.305,0,34.609,0,51.914,0,2.574,0,2.578-4,0-4-17.305,0-34.609,0-51.914,0-2.574,0-2.578,4,0,4h0Z"/><path class="h" d="M40.128,264.422c-2.218,0-3.752,1.719-3.752,3.729v.037c.017,2.23,1.579,3.763,3.753,3.763,1.38,0,2.469-.578,3.108-1.534.416-.616.644-1.389.644-2.266,0-.803-.243-1.556-.674-2.172-.655-.937-1.745-1.557-3.079-1.557Z"/><path class="f" d="M133.729,267.525c-.38-5.934-5.125-10.335-11.035-10.419-4.627.06-8.644,2.738-10.333,7.062-1.507,3.859-.628,8.519,2.093,11.61,2.876,3.268,7.927,4.272,11.983,2.925,4.75-1.577,7.61-6.217,7.292-11.179Z"/><path class="h" d="M122.695,264.422c-2.218,0-3.752,1.719-3.752,3.729v.037c.017,2.23,1.579,3.763,3.753,3.763,1.38,0,2.469-.578,3.108-1.534.416-.616.644-1.389.644-2.266,0-.803-.243-1.556-.674-2.172-.655-.937-1.745-1.557-3.079-1.557Z"/><path class="g" d="M368.5,211.257v47.574h-153.769c-1.156-4.494-1.603-7.892-.883-12.669,1.785-11.696,3.692-22.641,5.721-32.622.771-3.824,4.128-6.573,8.034-6.573h136.595c2.374,0,4.301,1.917,4.301,4.291Z"/><path class="i" d="M308.515,223.505h36.936c2.752,0,4.982,2.231,4.982,4.982,0,4.316,0,8.631,0,12.947,0,2.43-1.967,4.4-4.398,4.4-8.792,0-28.514,0-38.106,0-2.43,0-4.396-1.97-4.396-4.4v-12.947c0-2.752,2.231-4.982,4.982-4.982Z"/><path class="h" d="M281.629,258.834v-35.939c0-2.658-2.161-4.818-4.818-4.818h-27.246c-2.658,0-4.818,2.161-4.818,4.818v35.939h36.883Z"/><path class="j" d="M261.188,218.442v40.392c0,2.574,4,2.578,4,0v-40.392c0-2.574-4-2.578-4,0h0Z"/><path class="j" d="M226.614,214.141h-7.164c-1.981,9.813-3.85,20.553-5.596,32.021-.191,1.254-.301,2.414-.339,3.524.058-.001.087-.001.087-.001h7.726c1.123,0,2.081-.818,2.264-1.926,2.158-13.063,2.94-18.878,5.272-30.881.275-1.415-.805-2.735-2.25-2.737Z"/><path class="f" d="M238.009,264.643c-1.422-1.274-3.206-1.927-5.111-1.954-3.16.041-5.866,1.883-7.012,4.828-1.016,2.611-.383,5.743,1.45,7.826,1.929,2.192,5.341,2.881,8.062,1.977,3.206-1.065,5.19-4.183,4.974-7.548-.123-1.923-.909-3.827-2.363-5.129Z"/><path class="f" d="M258.229,264.643c-1.422-1.274-3.206-1.927-5.111-1.954-3.16.041-5.866,1.883-7.012,4.828-1.016,2.611-.383,5.743,1.45,7.826,1.929,2.192,5.341,2.881,8.062,1.977,3.206-1.065,5.19-4.183,4.974-7.548-.123-1.923-.909-3.827-2.363-5.129Z"/><path class="f" d="M339.492,264.643c-1.422-1.274-3.206-1.927-5.111-1.954-3.16.041-5.866,1.883-7.012,4.828-1.016,2.611-.383,5.743,1.45,7.826,1.929,2.192,5.34,2.881,8.062,1.977,3.206-1.065,5.19-4.183,4.974-7.548-.123-1.923-.909-3.827-2.363-5.129Z"/><path class="f" d="M359.713,264.643c-1.422-1.274-3.206-1.927-5.111-1.954-3.16.041-5.866,1.883-7.012,4.828-1.016,2.611-.383,5.743,1.45,7.826,1.929,2.192,5.34,2.881,8.062,1.977,3.206-1.065,5.19-4.183,4.974-7.548-.123-1.923-.909-3.827-2.363-5.129Z"/><path class="e" d="M368.5,258.831v6.725c0,2.374-1.927,4.301-4.301,4.301-73.248-.01-119.625-.01-140.176-.01-3.368,0-6.38-2.09-7.537-5.244-.548-1.471-.872-2.556-1.167-3.611-.213-.751-.406-1.471-.588-2.161h153.769Z"/></g></g></svg>