<?xml version="1.0" encoding="utf-8"?>
<!DOCTYPE svg PUBLIC "-//W3C//DTD SVG 1.1//EN" "http://www.w3.org/Graphics/SVG/1.1/DTD/svg11.dtd">
<svg style="shape-rendering:geometricPrecision; text-rendering:geometricPrecision; image-rendering:optimizeQuality; fill-rule:evenodd; clip-rule:evenodd" version="1.1" viewBox="0 0 100 100" xmlns="http://www.w3.org/2000/svg" xmlns:xlink="http://www.w3.org/1999/xlink">
<g><path d="M -0.5,-0.5 C 340.833,-0.5 682.167,-0.5 1023.5,-0.5C 1023.5,340.833 1023.5,682.167 1023.5,1023.5C 682.167,1023.5 340.833,1023.5 -0.5,1023.5C -0.5,682.167 -0.5,340.833 -0.5,-0.5 Z" fill="#fefefe" style="opacity:1"/></g>
<g><path d="M 444.5,286.5 C 428.339,285.338 412.005,285.172 395.5,286C 394.177,286.816 393.511,287.983 393.5,289.5C 382.059,304.783 370.392,319.95 358.5,335C 365.726,344.051 372.726,353.217 379.5,362.5C 381.284,364.948 382.618,367.615 383.5,370.5C 442.837,370.167 502.17,370.5 561.5,371.5C 563.167,372.5 564.5,373.833 565.5,375.5C 566.85,374.05 568.516,373.383 570.5,373.5C 570.185,375.226 570.019,376.893 570,378.5C 570.915,377.672 571.581,376.672 572,375.5C 572.333,375.833 572.667,376.167 573,376.5C 573.333,375.5 573.667,374.5 574,373.5C 575.137,374.364 576.47,375.364 578,376.5C 579,375.167 580,375.167 581,376.5C 581.333,375.833 581.667,375.167 582,374.5C 583.113,375.711 584.28,375.711 585.5,374.5C 587.402,376.151 589.402,376.484 591.5,375.5C 592.137,377.603 592.304,379.936 592,382.5C 593.309,380.109 594.309,380.109 595,382.5C 595.232,380.717 594.732,379.05 593.5,377.5C 594.363,375.128 595.529,375.128 597,377.5C 597.324,375.431 598.158,375.098 599.5,376.5C 600.748,375.96 601.915,375.293 603,374.5C 605,375.833 607,375.833 609,374.5C 609.492,375.549 609.326,376.549 608.5,377.5C 610.423,378.648 612.423,379.148 614.5,379C 613.167,377.667 611.833,376.333 610.5,375C 611.328,374.085 612.328,373.419 613.5,373C 613.043,372.586 612.709,372.086 612.5,371.5C 638.827,370.333 665.16,370.167 691.5,371C 689.99,371.85 688.49,372.683 687,373.5C 686.228,373.355 685.561,373.022 685,372.5C 684.626,373.416 684.126,374.25 683.5,375C 684.416,375.374 685.25,375.874 686,376.5C 688.312,376.045 690.312,375.045 692,373.5C 692.333,373.833 692.667,374.167 693,374.5C 693.308,373.692 693.808,373.025 694.5,372.5C 694.911,373.262 695.077,374.262 695,375.5C 695.414,375.043 695.914,374.709 696.5,374.5C 698.115,375.154 699.782,375.654 701.5,376C 701.64,377.264 701.64,378.431 701.5,379.5C 704.833,378.833 706.167,376.833 705.5,373.5C 708.5,374.167 711.5,374.833 714.5,375.5C 720.715,377.609 726.381,380.776 731.5,385C 736.667,390.167 741.833,395.333 747,400.5C 777.956,438.058 809.623,475.058 842,511.5C 857.957,530.619 858.624,550.286 844,570.5C 833.333,583.833 822.667,597.167 812,610.5C 806.498,617.18 799.998,622.513 792.5,626.5C 792.631,625.761 792.464,625.094 792,624.5C 789.734,625.956 787.234,626.79 784.5,627C 726.168,627.5 667.834,627.667 609.5,627.5C 472.666,627.783 335.999,628.449 199.5,629.5C 183.67,627.17 174.17,618.17 171,602.5C 170.333,533.833 170.333,465.167 171,396.5C 176.539,378.637 188.706,369.47 207.5,369C 255.5,368.667 303.5,368.333 351.5,368C 344.62,360.121 338.12,351.955 332,343.5C 327.345,337.461 327.345,331.461 332,325.5C 342.736,313.267 352.903,300.6 362.5,287.5C 344.777,286.96 327.111,286.127 309.5,285C 299.925,276.556 300.258,268.556 310.5,261C 356.775,259.348 403.108,259.015 449.5,260C 459.436,265.775 461.102,273.442 454.5,283C 451.562,285.257 448.229,286.424 444.5,286.5 Z" fill="#bdc1ca" style="opacity:1"/></g>
<g><path d="M 444.5,286.5 C 428.497,286.333 412.497,286.5 396.5,287C 395.627,288.045 394.627,288.878 393.5,289.5C 393.511,287.983 394.177,286.816 395.5,286C 412.005,285.172 428.339,285.338 444.5,286.5 Z" fill="#abb0bb" style="opacity:1"/></g>
<g><path d="M 379.5,362.5 C 381.479,363.812 383.145,365.479 384.5,367.5C 486.165,368.333 587.832,368.833 689.5,369C 695.608,369.355 701.608,370.355 707.5,372C 710.174,372.67 712.507,373.837 714.5,375.5C 711.5,374.833 708.5,374.167 705.5,373.5C 706.167,376.833 704.833,378.833 701.5,379.5C 701.64,378.431 701.64,377.264 701.5,376C 699.782,375.654 698.115,375.154 696.5,374.5C 695.914,374.709 695.414,375.043 695,375.5C 695.077,374.262 694.911,373.262 694.5,372.5C 693.808,373.025 693.308,373.692 693,374.5C 692.667,374.167 692.333,373.833 692,373.5C 690.312,375.045 688.312,376.045 686,376.5C 685.25,375.874 684.416,375.374 683.5,375C 684.126,374.25 684.626,373.416 685,372.5C 685.561,373.022 686.228,373.355 687,373.5C 688.49,372.683 689.99,371.85 691.5,371C 665.16,370.167 638.827,370.333 612.5,371.5C 612.709,372.086 613.043,372.586 613.5,373C 612.328,373.419 611.328,374.085 610.5,375C 611.833,376.333 613.167,377.667 614.5,379C 612.423,379.148 610.423,378.648 608.5,377.5C 609.326,376.549 609.492,375.549 609,374.5C 607,375.833 605,375.833 603,374.5C 601.915,375.293 600.748,375.96 599.5,376.5C 598.158,375.098 597.324,375.431 597,377.5C 595.529,375.128 594.363,375.128 593.5,377.5C 594.732,379.05 595.232,380.717 595,382.5C 594.309,380.109 593.309,380.109 592,382.5C 592.304,379.936 592.137,377.603 591.5,375.5C 589.402,376.484 587.402,376.151 585.5,374.5C 584.28,375.711 583.113,375.711 582,374.5C 581.667,375.167 581.333,375.833 581,376.5C 580,375.167 579,375.167 578,376.5C 576.47,375.364 575.137,374.364 574,373.5C 573.667,374.5 573.333,375.5 573,376.5C 572.667,376.167 572.333,375.833 572,375.5C 571.581,376.672 570.915,377.672 570,378.5C 570.019,376.893 570.185,375.226 570.5,373.5C 568.516,373.383 566.85,374.05 565.5,375.5C 564.5,373.833 563.167,372.5 561.5,371.5C 502.17,370.5 442.837,370.167 383.5,370.5C 382.618,367.615 381.284,364.948 379.5,362.5 Z" fill="#babec7" style="opacity:1"/></g>
<g><path d="M 332.5,412.5 C 302.135,412.19 271.802,412.523 241.5,413.5C 241.918,412.778 242.584,412.278 243.5,412C 273.336,411.169 303.003,411.336 332.5,412.5 Z" fill="#a7acb7" style="opacity:1"/></g>
<g><path d="M 691.5,412.5 C 660.123,412.182 628.79,412.515 597.5,413.5C 597.062,413.565 596.728,413.399 596.5,413C 597.167,412.667 597.833,412.333 598.5,412C 629.669,411.169 660.669,411.336 691.5,412.5 Z" fill="#a9aeb9" style="opacity:1"/></g>
<g><path d="M 332.5,412.5 C 336.147,413.983 338.647,416.65 340,420.5C 340.667,445.833 340.667,471.167 340,496.5C 339.167,500 337,502.167 333.5,503C 303.5,503.667 273.5,503.667 243.5,503C 240.333,501.833 238.167,499.667 237,496.5C 236.333,470.833 236.333,445.167 237,419.5C 238.332,417.34 239.832,415.34 241.5,413.5C 271.802,412.523 302.135,412.19 332.5,412.5 Z" fill="#fefefe" style="opacity:1"/></g>
<g><path d="M 389.5,412.5 C 420.588,412.015 451.588,412.515 482.5,414C 484.049,415.214 485.215,416.714 486,418.5C 486.667,444.5 486.667,470.5 486,496.5C 485.027,500.406 482.527,502.573 478.5,503C 448.833,503.667 419.167,503.667 389.5,503C 386,502.167 383.833,500 383,496.5C 382.333,470.5 382.333,444.5 383,418.5C 384.436,415.558 386.603,413.558 389.5,412.5 Z" fill="#fefefe" style="opacity:1"/></g>
<g><path d="M 691.5,412.5 C 698.725,413.948 705.058,417.281 710.5,422.5C 729.333,444.167 748.167,465.833 767,487.5C 770.195,494.94 768.029,500.107 760.5,503C 708.167,503.667 655.833,503.667 603.5,503C 596.397,502.54 591.564,499.04 589,492.5C 588.333,468.833 588.333,445.167 589,421.5C 591.098,417.897 593.932,415.23 597.5,413.5C 628.79,412.515 660.123,412.182 691.5,412.5 Z" fill="#fefefe" style="opacity:1"/></g>
<g><path d="M 609.5,627.5 C 666.331,628.499 723.331,628.832 780.5,628.5C 587.001,629.5 393.334,629.833 199.5,629.5C 335.999,628.449 472.666,627.783 609.5,627.5 Z" fill="#babec7" style="opacity:1"/></g>
<g><path d="M 792.5,626.5 C 788.574,627.552 784.574,628.218 780.5,628.5C 723.331,628.832 666.331,628.499 609.5,627.5C 667.834,627.667 726.168,627.5 784.5,627C 787.234,626.79 789.734,625.956 792,624.5C 792.464,625.094 792.631,625.761 792.5,626.5 Z" fill="#b0b5bf" style="opacity:1"/></g>
<g><path d="M 599.5,641.5 C 622.997,640.832 634.83,652.166 635,675.5C 630.896,694.644 619.063,703.144 599.5,701C 578.305,692.778 571.805,677.945 580,656.5C 584.688,648.959 591.188,643.959 599.5,641.5 Z" fill="#bdc1c9" style="opacity:1"/></g>
<g><path d="M 260.5,641.5 C 277.085,640.702 288.251,648.036 294,663.5C 295.99,689.176 284.157,701.343 258.5,700C 241.442,694.255 234.276,682.421 237,664.5C 240.761,652.571 248.595,644.904 260.5,641.5 Z" fill="#bdc1c9" style="opacity:1"/></g>
<g><path d="M 341.5,641.5 C 363.967,642.465 374.801,654.131 374,676.5C 368.475,694.519 356.308,702.352 337.5,700C 320.684,693.541 313.85,681.375 317,663.5C 321.323,651.667 329.49,644.333 341.5,641.5 Z" fill="#bdc1c9" style="opacity:1"/></g>
<g><path d="M 679.5,641.5 C 698.523,640.356 710.356,649.023 715,667.5C 715.567,685.52 707.067,696.687 689.5,701C 671.843,702.422 660.677,694.588 656,677.5C 654.464,659.231 662.297,647.231 679.5,641.5 Z" fill="#bdc1c9" style="opacity:1"/></g>
</svg>